<svg xmlns="http://www.w3.org/2000/svg" height="16" width="16" viewBox="0 0 512 512"><!--!Font Awesome Free 6.5.1 by @fontawesome - https://fontawesome.com License - https://fontawesome.com/license/free Copyright 2023 Fonticons, Inc.--><path d="M304 48c0 26.5-21.5 48-48 48s-48-21.5-48-48 21.5-48 48-48 48 21.5 48 48zm-48 368c-26.5 0-48 21.5-48 48s21.5 48 48 48 48-21.5 48-48-21.5-48-48-48zm208-208c-26.5 0-48 21.5-48 48s21.5 48 48 48 48-21.5 48-48-21.5-48-48-48zM96 256c0-26.5-21.5-48-48-48S0 229.5 0 256s21.5 48 48 48 48-21.5 48-48zm12.9 99.1c-26.5 0-48 21.5-48 48s21.5 48 48 48 48-21.5 48-48c0-26.5-21.5-48-48-48zm294.2 0c-26.5 0-48 21.5-48 48s21.5 48 48 48 48-21.5 48-48c0-26.5-21.5-48-48-48zM108.9 60.9c-26.5 0-48 21.5-48 48s21.5 48 48 48 48-21.5 48-48-21.5-48-48-48z"/></svg>